<svg xmlns="http://www.w3.org/2000/svg"><symbol id="icon-facebook" viewBox="0 0 64 64"><title>facebook</title><path d="M36.5 61.1V34.6h8.9l1.3-10.3H36.5v-6.6c0-3 .8-5 5.1-5h5.5V3.3c-.9-.1-4.2-.4-8-.4-7.9 0-13.3 4.8-13.3 13.7v7.6h-8.9v10.3h8.9V61h10.7z"/></symbol><symbol id="icon-instagram" viewBox="0 0 64 64"><title>instagram</title><path d="M32 5.8c8.5 0 9.6 0 12.9.2 3.1.1 4.8.7 5.9 1.1 1.5.6 2.6 1.3 3.7 2.4 1.1 1.1 1.8 2.2 2.4 3.7.4 1.1 1 2.8 1.1 5.9.2 3.4.2 4.4.2 12.9s0 9.6-.2 12.9c-.1 3.1-.7 4.8-1.1 5.9-.6 1.5-1.3 2.6-2.4 3.7-1.1 1.1-2.2 1.8-3.7 2.4-1.1.4-2.8 1-5.9 1.1-3.4.2-4.4.2-12.9.2s-9.6 0-12.9-.2c-3.1-.1-4.8-.7-5.9-1.1-1.5-.6-2.6-1.3-3.7-2.4-1.1-1.1-1.8-2.2-2.4-3.7-.4-1.1-1-2.8-1.1-5.9-.2-3.3-.2-4.4-.2-12.9s0-9.6.2-12.9c.1-3.1.7-4.8 1.1-5.9.6-1.5 1.3-2.6 2.4-3.7 1.1-1.1 2.2-1.8 3.7-2.4 1.1-.4 2.8-1 5.9-1.1 3.3-.2 4.4-.2 12.9-.2M32 0c-8.7 0-9.8 0-13.2.2-3.4.2-5.7.7-7.8 1.5-2.1.8-3.9 1.9-5.6 3.7C3.6 7.1 2.5 8.9 1.7 11 .9 13 .4 15.4.2 18.8 0 22.2 0 23.3 0 32s0 9.8.2 13.2c.2 3.4.7 5.7 1.5 7.8.8 2.1 1.9 3.9 3.7 5.7 1.8 1.8 3.6 2.9 5.7 3.7 2 .8 4.4 1.3 7.8 1.5 3.3.1 4.4.1 13.1.1s9.8 0 13.2-.2c3.4-.2 5.7-.7 7.8-1.5 2.1-.8 3.9-1.9 5.7-3.7 1.8-1.8 2.9-3.6 3.7-5.7.8-2 1.3-4.4 1.5-7.8.1-3.3.1-4.4.1-13.1s0-9.8-.2-13.2c-.2-3.4-.7-5.7-1.5-7.8-.8-2.1-1.9-3.9-3.7-5.7-1.8-1.8-3.6-2.9-5.7-3.7-2-.8-4.4-1.3-7.8-1.5C41.8 0 40.7 0 32 0z"/><path d="M32 15.6c-9.1 0-16.4 7.4-16.4 16.4 0 9.1 7.4 16.4 16.4 16.4S48.4 41.1 48.4 32c0-9.1-7.3-16.4-16.4-16.4zm0 27.1c-5.9 0-10.7-4.8-10.7-10.7 0-5.9 4.8-10.7 10.7-10.7 5.9 0 10.7 4.8 10.7 10.7 0 5.9-4.8 10.7-10.7 10.7z"/><circle cx="49.1" cy="14.9" r="3.8"/></symbol><symbol id="icon-twitter" viewBox="0 0 64 64"><title>twitter</title><path d="M20.8 56.4c22.6 0 35-18.8 35-35v-1.6c2.4-1.7 4.5-3.9 6.1-6.4-2.2 1-4.6 1.6-7.1 1.9 2.5-1.5 4.5-3.9 5.4-6.8-2.4 1.4-5 2.4-7.8 3-2.3-2.4-5.5-3.9-9-3.9-6.8 0-12.3 5.5-12.3 12.3 0 1 .1 1.9.3 2.8-10.1-.5-19.2-5.4-25.2-12.8-1.1 1.8-1.7 3.9-1.7 6.2 0 4.3 2.2 8 5.5 10.3-2-.1-3.9-.6-5.6-1.5v.2c0 6 4.2 10.9 9.9 12.1-1 .3-2.1.4-3.2.4-.8 0-1.6-.1-2.3-.2 1.6 4.9 6.1 8.5 11.5 8.5-4.2 3.3-9.5 5.3-15.3 5.3-1 0-2 0-2.9-.2 5.3 3.4 11.8 5.4 18.7 5.4"/></symbol><symbol id="icon-youtube" viewBox="0 0 64 64"><title>youtube</title><path d="M60.5 20.4s-.6-4-2.3-5.8c-2.2-2.3-4.7-2.3-5.8-2.5-8.2-.6-20.4-.6-20.4-.6s-12.2 0-20.4.6c-1.1.1-3.6.1-5.8 2.5-1.7 1.8-2.3 5.8-2.3 5.8s-.6 4.7-.6 9.4v4.4c0 4.7.6 9.4.6 9.4s.6 4 2.3 5.8c2.2 2.3 5.1 2.2 6.4 2.5 4.7.4 19.8.6 19.8.6s12.2 0 20.4-.6c1.1-.1 3.6-.1 5.8-2.5 1.7-1.8 2.3-5.8 2.3-5.8s.6-4.7.6-9.4v-4.4c0-4.7-.6-9.4-.6-9.4zM26 39.5V23.2l15.7 8.2L26 39.5z"/></symbol></svg>